<svg xmlns="http://www.w3.org/2000/svg" width="44" height="35" viewBox="0 0 44 35"><g transform="translate(0 -32.813)"><path d="M26.092,136.994H11.924a2.9,2.9,0,0,1-2.9-2.9V123.408a.64.64,0,0,0-.64-.64H1.2a1.2,1.2,0,0,0-1.2,1.2v16.714a1.2,1.2,0,0,0,1.2,1.2H3.123a.641.641,0,0,1,.522.27L6.9,146.734a.64.64,0,0,0,1.044,0l3.25-4.588a.641.641,0,0,1,.522-.27H25.535a1.2,1.2,0,0,0,1.2-1.2v-3.046A.639.639,0,0,0,26.092,136.994Z" transform="translate(0 -79.191)"/><path d="M117.1,32.813H87.139a1.623,1.623,0,0,0-1.621,1.621V55.009a1.623,1.623,0,0,0,1.621,1.621h17.014a.64.64,0,0,1,.522.27l4.242,5.988a.64.64,0,0,0,1.044,0L114.2,56.9a.641.641,0,0,1,.522-.27H117.1a1.623,1.623,0,0,0,1.621-1.621V34.434A1.623,1.623,0,0,0,117.1,32.813Zm-13.4,17.094v1.427a.268.268,0,0,1-.268.268h-2.053a.268.268,0,0,1-.268-.268V49.855a5.7,5.7,0,0,1-2.771-1.541l-.4-.421a.268.268,0,0,1,.01-.379L99.438,46.1a.268.268,0,0,1,.378.01l.4.421a3.251,3.251,0,0,0,2.241.9c.659,0,1.774-.174,1.774-.826,0-.564-.239-.79-1.965-1.313-1.476-.447-3.945-1.2-3.945-3.975a3.43,3.43,0,0,1,2.786-3.273V36.514a.268.268,0,0,1,.268-.268h2.053a.268.268,0,0,1,.268.268V37.9a6.226,6.226,0,0,1,2.405.857l.487.315a.268.268,0,0,1,.079.37l-1.114,1.725a.268.268,0,0,1-.37.08l-.488-.315a3.98,3.98,0,0,0-1.927-.514c-.69,0-1.859.189-1.859.9,0,.666.277.943,2.107,1.5,1.523.461,3.826,1.159,3.8,3.8C106.82,48.292,105.629,49.538,103.695,49.907Z" transform="translate(-74.719)"/></g></svg>