<svg xmlns="http://www.w3.org/2000/svg" width="35" height="35" viewBox="0 0 35 35"><g transform="translate(-7.7 0)"><g transform="translate(7.7 0)"><path d="M34.946,9.1a.472.472,0,0,0,.2-.9L17.092.19A2.18,2.18,0,0,0,14.21,1.3L7.891,15.466A2.18,2.18,0,0,0,9,18.348l3.64,1.575a.694.694,0,0,0,.975-.628V13.278A4.177,4.177,0,0,1,17.785,9.1H34.946Z" transform="translate(-7.7 0)"/><path d="M140.738,153.136H118.846a2.21,2.21,0,0,0-2.21,2.21V170.81a2.21,2.21,0,0,0,2.21,2.21h2.94a8.026,8.026,0,0,1-.108-1.322,8.363,8.363,0,0,1,.137-1.481h-2.369v-7.4h20.7v7.4h-2.376a8.362,8.362,0,0,1,.137,1.481,8.025,8.025,0,0,1-.108,1.322h2.94a2.21,2.21,0,0,0,2.21-2.21V155.346A2.21,2.21,0,0,0,140.738,153.136Zm-.592,5.121h-20.7v-2.318h20.7Z" transform="translate(-107.948 -142.368)"/><path d="M225.913,331.436a5.677,5.677,0,1,0,5.677,5.677A5.678,5.678,0,0,0,225.913,331.436Zm1.632,7.916a1.8,1.8,0,0,1-.946.607.264.264,0,0,0-.231.3c.007.166,0,.332,0,.506a.2.2,0,0,1-.224.231q-.271.011-.542,0c-.159,0-.231-.094-.231-.246v-.368c0-.267-.014-.282-.274-.325a3.405,3.405,0,0,1-.961-.274c-.238-.116-.267-.173-.2-.426.051-.188.1-.376.159-.556.065-.217.123-.238.325-.137a3.1,3.1,0,0,0,1.069.318,1.3,1.3,0,0,0,.7-.094.542.542,0,0,0,.13-.953,1.465,1.465,0,0,0-.4-.231,8.244,8.244,0,0,1-1.091-.491,1.535,1.535,0,0,1-.874-1.481,1.626,1.626,0,0,1,1.192-1.51c.289-.108.3-.1.3-.4v-.311c.007-.231.043-.267.274-.274h.209c.491,0,.491,0,.491.491,0,.347,0,.347.347.4a3.15,3.15,0,0,1,.758.224.218.218,0,0,1,.144.3c-.058.209-.116.426-.188.628s-.13.224-.318.137a2.384,2.384,0,0,0-1.2-.238.96.96,0,0,0-.318.065.456.456,0,0,0-.116.809,2.307,2.307,0,0,0,.52.3,8.065,8.065,0,0,1,.953.433A1.7,1.7,0,0,1,227.545,339.352Z" transform="translate(-204.334 -307.79)"/></g></g></svg>