<svg xmlns="http://www.w3.org/2000/svg" width="35" height="35" viewBox="0 0 35 35"><g transform="translate(0 -17.84)"><g transform="translate(0 17.84)"><path d="M161.465,24.421,175.822,20.5l-.76-1.537a2.023,2.023,0,0,0-2.71-.914L159.5,24.421Z" transform="translate(-153.381 -17.84)"/><path d="M336.207,86.46a2.021,2.021,0,0,0-.534.073l-3.373.922L322,90.266h16.787l-.631-2.313A2.019,2.019,0,0,0,336.207,86.46Z" transform="translate(-309.664 -83.685)"/><path d="M30.964,215.56h-29a1.937,1.937,0,0,0-1.534.76,2.048,2.048,0,0,0-.361.732,2.154,2.154,0,0,0-.071.53v22.53a1.993,1.993,0,0,0,1.962,2.022h29a1.993,1.993,0,0,0,1.962-2.022v-5.642H21.281a3.39,3.39,0,0,1-3.335-3.438v-4.5a3.478,3.478,0,0,1,.946-2.394,3.266,3.266,0,0,1,1.989-1.015,3.219,3.219,0,0,1,.4-.024H32.921v-5.52A1.988,1.988,0,0,0,30.964,215.56Z" transform="translate(0 -207.134)"/><path d="M507.841,437.291a2.019,2.019,0,0,0-.708-.421,2.062,2.062,0,0,0-.655-.109H494.422a2.023,2.023,0,0,0-2.022,2.022v4.5a2.023,2.023,0,0,0,2.022,2.022h12.056a2.062,2.062,0,0,0,.655-.109,1.961,1.961,0,0,0,.708-.421,2.015,2.015,0,0,0,.659-1.492v-4.5A2.015,2.015,0,0,0,507.841,437.291Zm-9.2,4.145a1.011,1.011,0,0,1-1.011,1.011h-.671a1.011,1.011,0,0,1-1.011-1.011v-.671a.991.991,0,0,1,.388-.793,1.022,1.022,0,0,1,.623-.218h.671a1.011,1.011,0,0,1,1.011,1.011v.671Z" transform="translate(-473.5 -419.539)"/></g></g></svg>