<svg xmlns="http://www.w3.org/2000/svg" width="60" height="60" viewBox="0 0 60 60"><defs><style>.a{fill:#e50075;}</style></defs><g transform="translate(0 -0.394)"><g transform="translate(0 0.394)"><g transform="translate(0 0)"><path class="a" d="M58.655,47.851l-9.266-9.288a4.824,4.824,0,0,0-6.812.129l-4.668,4.678c-.295-.163-.6-.333-.921-.514a46.457,46.457,0,0,1-11.229-8.14,46.819,46.819,0,0,1-8.138-11.274c-.173-.313-.339-.615-.5-.9L20.252,19.4l1.54-1.546a4.846,4.846,0,0,0,.124-6.828L12.65,1.741a4.819,4.819,0,0,0-6.812.129L3.227,4.5l.071.071a15.145,15.145,0,0,0-2.152,3.8,15.8,15.8,0,0,0-.957,3.859C-1.035,22.4,3.6,31.694,16.18,44.3c17.388,17.427,31.4,16.11,32.006,16.046a15.628,15.628,0,0,0,3.861-.972,15.041,15.041,0,0,0,3.782-2.147l.057.051,2.646-2.6A4.855,4.855,0,0,0,58.655,47.851Z" transform="translate(0 -0.394)"/></g></g></g></svg>