<svg xmlns="http://www.w3.org/2000/svg" width="43" height="43" viewBox="0 0 43 43"><defs><style>.a{fill:#607d8b;}.b{fill:#e50075;}</style></defs><g transform="translate(0 -0.004)"><path class="a" d="M12.638,27.086A14.428,14.428,0,0,1,36.11,15.829V4.969A4.969,4.969,0,0,0,31.145,0H4.965A4.969,4.969,0,0,0,0,4.969v26.18a4.969,4.969,0,0,0,4.965,4.965h10.86A14.363,14.363,0,0,1,12.638,27.086Zm0,0"/><path class="b" d="M218.554,216l-6.9-6.9a10.87,10.87,0,1,0-2.553,2.553l6.9,6.9A1.805,1.805,0,0,0,218.554,216Zm0,0" transform="translate(-176.083 -176.083)"/></g></svg>