<svg xmlns="http://www.w3.org/2000/svg" width="25" height="35" viewBox="0 0 25 35"><g transform="translate(-71)"><g transform="translate(71)"><path d="M94.986,0H75.807a1.007,1.007,0,0,0-.717.3L71.3,4.139a1.031,1.031,0,0,0-.3.725V33.975A1.02,1.02,0,0,0,72.014,35H94.986A1.02,1.02,0,0,0,96,33.975V1.025A1.02,1.02,0,0,0,94.986,0ZM80.139,8.869c0-1.89,1.383-2.8,2.942-3.021V5.432c0-.208.235-.4.559-.4.279,0,.559.193.559.4V5.8c.912.03,2.633.268,2.633,1.295,0,.4-.265,1.22-.912,1.22-.485,0-.765-.476-1.721-.551V9.941c1.339.506,2.9,1.205,2.9,3.214A3.149,3.149,0,0,1,84.2,16.4v.432c0,.208-.279.4-.559.4-.324,0-.559-.193-.559-.4v-.372c-1.765-.06-3.207-.982-3.207-1.935,0-.506.441-1.25,1-1.25.618,0,1.118.878,2.206,1.071V11.935C81.728,11.414,80.139,10.774,80.139,8.869ZM90.932,30.078H76.068a1.025,1.025,0,0,1,0-2.051H90.932a1.025,1.025,0,0,1,0,2.051Zm0-4.1H76.068a1.025,1.025,0,0,1,0-2.051H90.932a1.025,1.025,0,0,1,0,2.051Zm0-4.1H85.527a1.025,1.025,0,0,1,0-2.051h5.405a1.025,1.025,0,0,1,0,2.051Z" transform="translate(-71)"/><path d="M265.1,181.553c0-.5-.382-.826-.933-1.086v2.05C264.686,182.395,265.1,182.1,265.1,181.553Z" transform="translate(-251.134 -168.151)"/><path d="M239.021,114.287c-.688.138-.979.49-.979.857,0,.444.4.719.979.964Z" transform="translate(-226.773 -106.486)"/></g></g></svg>