<svg xmlns="http://www.w3.org/2000/svg" width="35" height="35" viewBox="0 0 35 35"><path d="M17.5,0a17.5,17.5,0,0,0-4.357,34.451l.511-1.986a15.449,15.449,0,1,1,7.692,0l.511,1.986A17.5,17.5,0,0,0,17.5,0Z"/><g transform="translate(4.102 4.102)"><path d="M73.4,60a13.4,13.4,0,0,0-4.444,26.035l.685-1.933a11.348,11.348,0,1,1,7.518,0l.685,1.933A13.4,13.4,0,0,0,73.4,60Z" transform="translate(-60 -60)"/></g><g transform="translate(8.203 8.203)"><path d="M129.3,120a9.289,9.289,0,0,0-4.616,17.355l1.029-1.774a7.246,7.246,0,1,1,7.175,0l1.029,1.774A9.289,9.289,0,0,0,129.3,120Z" transform="translate(-120 -120)"/></g><g transform="translate(14.424 14.424)"><path d="M214.076,211a3.076,3.076,0,0,0-1.025,5.976v14.6H215.1v-14.6A3.076,3.076,0,0,0,214.076,211Zm0,4.1a1.025,1.025,0,1,1,1.025-1.025A1.027,1.027,0,0,1,214.076,215.1Z" transform="translate(-211 -211)"/></g></svg>