<svg xmlns="http://www.w3.org/2000/svg" width="43.998" height="35" viewBox="0 0 43.998 35"><g transform="translate(0 -4.806)"><g transform="translate(0 4.806)"><path d="M34.791,37.92H9.994a2.032,2.032,0,0,0,0,4.064h24.8a2.032,2.032,0,0,0,0-4.064Z" transform="translate(-0.393 -6.984)"/><path d="M7.478,21.817V26.9a1.524,1.524,0,1,0,3.048,0V21.817a1.524,1.524,0,0,0-3.048,0Z" transform="translate(-0.486 -5.863)"/><path d="M12.818,19.682v7.111a1.524,1.524,0,1,0,3.048,0V19.682a1.524,1.524,0,1,0-3.048,0Z" transform="translate(-0.832 -5.738)"/><path d="M18.159,17.545v9.142a1.524,1.524,0,1,0,3.048,0V17.545a1.524,1.524,0,1,0-3.048,0Z" transform="translate(-1.179 -5.609)"/><path d="M42,4.806H2A2,2,0,0,0,0,6.8V31.718a2,2,0,0,0,2,1.994H40.17c-.058-.051-.125-.093-.179-.146L37.223,30.8a10.731,10.731,0,0,1-12.1-1.078H4V8.792H40v5.619a10.617,10.617,0,0,1,1.317,12.31L44,29.4V6.8A2,2,0,0,0,42,4.806Z" transform="translate(0 -4.806)"/><path d="M41.511,28.333a.913.913,0,0,0-.739-.251l-.427-.415a8.436,8.436,0,0,0-.381-11.783,9.045,9.045,0,0,0-12.543,0,8.448,8.448,0,0,0,0,12.193,9.033,9.033,0,0,0,12.118.372l.429.414a.86.86,0,0,0,.258.72l3.056,2.971a.917.917,0,0,0,.644.257.928.928,0,0,0,.644-.257.868.868,0,0,0,0-1.249Zm-2.834-1.509a7.187,7.187,0,0,1-9.97,0,6.718,6.718,0,0,1,0-9.693,7.189,7.189,0,0,1,9.97,0,6.721,6.721,0,0,1,0,9.691Z" transform="translate(-1.914 -5.225)"/></g></g></svg>