<svg xmlns="http://www.w3.org/2000/svg" width="40" height="35" viewBox="0 0 40 35"><path d="M30.6,24.425a3.175,3.175,0,0,1-1.526,2.392c-.244.2-.7.556-.7.69a.958.958,0,0,1-.984.946h-.008a.961.961,0,0,1-.992-.931,2.844,2.844,0,0,1,1.4-2.158c.494-.4.818-.679.818-.936a.982.982,0,0,0-1.962,0,.993.993,0,0,1-1.983,0,2.967,2.967,0,0,1,5.929,0Zm-3.188,4.907a.954.954,0,0,0-.97.953v.007a.951.951,0,0,0,.97.949.955.955,0,1,0,0-1.909ZM7.426,35.968a.953.953,0,1,0,0,1.905h.083a.953.953,0,1,0,0-1.905Zm3.447,0a.953.953,0,1,0,0,1.905h.083a.953.953,0,1,0,0-1.905ZM40,20.752V31.475a4.675,4.675,0,0,1-4.762,4.6H22.376c-.251,0-.459,0-.632,0s-.386,0-.465,0c-.083.053-.286.232-.482.405l-.26.227L16.9,39.892a1.041,1.041,0,0,1-1.079.168.972.972,0,0,1-.612-.872v-10.1H4.818A2.788,2.788,0,0,0,1.983,31.8V42.519a2.748,2.748,0,0,0,2.834,2.659H19.184a1.016,1.016,0,0,1,.661.269l2.965,2.626V39.018a.993.993,0,0,1,1.983,0V50.231a.938.938,0,0,1-.584.866.985.985,0,0,1-.393.076,1.025,1.025,0,0,1-.669-.259L18.8,47.083H4.818A4.7,4.7,0,0,1,0,42.519V31.8a4.736,4.736,0,0,1,4.818-4.613H15.207v-6.43a4.722,4.722,0,0,1,4.834-4.578h15.2A4.658,4.658,0,0,1,40,20.752Zm-1.983,0a2.71,2.71,0,0,0-2.779-2.673h-15.2a2.774,2.774,0,0,0-2.851,2.673V37.029L19.184,35.3c.092-.081.2-.155.271-.222a2.554,2.554,0,0,1,2.331-.911c.162,0,.355,0,.59,0H35.238a2.728,2.728,0,0,0,2.779-2.694V20.752Z" transform="translate(0 -16.174)"/></svg>