<svg xmlns="http://www.w3.org/2000/svg" width="22" height="35" viewBox="0 0 22 35"><g transform="translate(-83.509)"><path d="M85.379,11.486a3.867,3.867,0,0,1,1.866-3.309V7.444a7.456,7.456,0,0,1,14.912,0v1a3.861,3.861,0,0,1-1.451,6.789,2.362,2.362,0,0,1-.463.735,3.721,3.721,0,0,1-2.354,1.042.516.516,0,0,1-.49.362h-.99a.521.521,0,1,1,0-1.042h.99a.514.514,0,0,1,.433.247,3.3,3.3,0,0,0,2.088-.9,2.03,2.03,0,0,0,.248-.338,3.921,3.921,0,0,1-.4.021V7.616a3.878,3.878,0,0,1,1.189.186V7.443a6.25,6.25,0,0,0-12.5,0V7.7a3.912,3.912,0,0,1,.8-.084v7.738A3.872,3.872,0,0,1,85.379,11.486Zm11,4.465h.991a.938.938,0,0,1,.6.218,3.812,3.812,0,0,0,.807-.225c.109-.1.22-.192.321-.3V6.639h.03a6.448,6.448,0,0,0-9.247,0h.029v9.01A6.381,6.381,0,0,0,95.6,17.469a.957.957,0,0,1,.781-1.518Zm.863,2.058H91.771a8.264,8.264,0,0,0-8.262,8.248v6.686l.017.1.462.144A37.693,37.693,0,0,0,95.222,35a23.11,23.11,0,0,0,9.809-1.838l.432-.219h.046V26.257A8.265,8.265,0,0,0,97.246,18.009Z"/></g></svg>