<svg xmlns="http://www.w3.org/2000/svg" width="35" height="35" viewBox="0 0 35 35"><g transform="translate(-0.398)"><path d="M165.364,271.249h.045A1.876,1.876,0,0,0,167.2,269.9H163.57A1.876,1.876,0,0,0,165.364,271.249Zm0,0" transform="translate(-149.375 -247.518)"/><path d="M242.065,220.9h-.023a.68.68,0,0,0-.643.71v.472h1.351v-.472A.715.715,0,0,0,242.065,220.9Zm0,0" transform="translate(-220.624 -202.58)"/><path d="M151.321,139.989a.107.107,0,0,0-.107-.091h-6.761c-.049,0-.054.041-.054.091v1.26h6.922Zm0,0" transform="translate(-131.822 -128.298)"/><path d="M113.136,220.9h-.022a.742.742,0,0,0-.716.71v.472h1.435v-.472A.725.725,0,0,0,113.136,220.9Zm0,0" transform="translate(-102.531 -202.58)"/><path d="M89.451,167.9H74.424a2.026,2.026,0,0,0-2.026,2.026v7.513a2.026,2.026,0,0,0,2.026,2.026H89.451a2.026,2.026,0,0,0,2.026-2.026v-7.513A2.026,2.026,0,0,0,89.451,167.9Zm-11.227,6.19a.5.5,0,0,1-.528.479H75.309a.52.52,0,0,1-.547-.479v-1.006a1.755,1.755,0,0,1,1.729-1.723h.022a1.739,1.739,0,0,1,1.71,1.723Zm6.585,1.927a2.866,2.866,0,0,1-2.874,2.857h-.045a2.892,2.892,0,0,1-2.905-2.857v-.023a.53.53,0,0,1,.541-.5H84.3a.5.5,0,0,1,.511.5Zm4.221-1.927a.492.492,0,0,1-.516.479H86.126a.457.457,0,0,1-.475-.479v-1.006a1.694,1.694,0,0,1,1.656-1.723h.023a1.728,1.728,0,0,1,1.7,1.723Zm0,0" transform="translate(-65.902 -154.083)"/><path d="M312.857,118.276a1.378,1.378,0,1,0-1.377,1.378A1.378,1.378,0,0,0,312.857,118.276Zm0,0" transform="translate(-283.517 -107.213)"/><path d="M35.4,17.177A17.36,17.36,0,0,0,17.9,0,17.36,17.36,0,0,0,.4,17.177,17.36,17.36,0,0,0,17.9,34.353a17.718,17.718,0,0,0,5.923-1.021l9.662,1.659a.6.6,0,0,0,.565-.211.572.572,0,0,0,.081-.588l-2.674-6.171A16.813,16.813,0,0,0,35.4,17.177ZM26.538,23.8a3.031,3.031,0,0,1-3,2.494H8.486a3.05,3.05,0,0,1-2.14-.879,2.938,2.938,0,0,1-.875-2.108V15.942a3.01,3.01,0,0,1,3.015-3.006h3.072V11.7a1.066,1.066,0,0,1,1.068-1.085h2.821V9.391a.507.507,0,0,1,1.014,0v1.222H19.4A1.112,1.112,0,0,1,20.519,11.7v1.239h3.019a3.039,3.039,0,0,1,3,2.5,3.837,3.837,0,0,1,.913.209v-2.3a2.39,2.39,0,1,1,1.014,0v2.794A4.179,4.179,0,0,1,26.538,23.8Zm0,0"/><path d="M310.4,198.344v6.444a3.262,3.262,0,0,0,0-6.444Zm0,0" transform="translate(-283.789 -181.949)"/></g></svg>