<svg xmlns="http://www.w3.org/2000/svg" width="35" height="35" viewBox="0 0 35 35"><path d="M220.3,208.88a11.455,11.455,0,0,0-6.282-10.2,15.577,15.577,0,0,1-15.338,15.338,11.424,11.424,0,0,0,16.011,4.694l5.559,1.538-1.538-5.559A11.379,11.379,0,0,0,220.3,208.88Zm0,0" transform="translate(-185.3 -185.3)"/><path d="M26.98,13.49A13.49,13.49,0,1,0,1.871,20.347L.05,26.93l6.584-1.821A13.493,13.493,0,0,0,26.98,13.49ZM11.42,10.35H9.35a4.14,4.14,0,1,1,6.934,3.055l-1.759,1.61V16.63h-2.07V14.1l2.431-2.225a2.049,2.049,0,0,0,.674-1.528,2.07,2.07,0,1,0-4.14,0ZM12.455,18.7h2.07v2.07h-2.07Zm0,0"/></svg>